# xmcd CD database file
#
# Track frame offsets:
#	150
#	19270
#	37323
#	54502
#	76684
#	90011
#	111181
#	134814
#	156780
#	171513
#	187460
#	198285
#
# Disc length: 2868 seconds
#
# Revision: 0
# Processed by: cddbd v1.5.1PL2 Copyright (c) Steve Scherf et al.
# Submitted via: CDex 1.51
#
DISCID=a50b320c
DTITLE=The Cover Girls - Live
DYEAR=2005
DGENRE=Jazz
TTITLE0=There will be never another you
TTITLE1=Quiet nights of quiet stars
TTITLE2=Spring
TTITLE3=The most simple thing
TTITLE4=Bei mir bist du schön
TTITLE5=It's like it is
TTITLE6=What if my life
TTITLE7=Let's fly
TTITLE8=s'Wonderful
TTITLE9=My baby just cares for me
TTITLE10=I got rhythm
TTITLE11=Rum and Coca Cola
EXTD=YEAR: 2005
EXTT0=
EXTT1=
EXTT2=
EXTT3=
EXTT4=
EXTT5=
EXTT6=
EXTT7=
EXTT8=
EXTT9=
EXTT10=
EXTT11=
PLAYORDER=
